<svg xmlns="http://www.w3.org/2000/svg" xmlns:xlink="http://www.w3.org/1999/xlink" version="1.1" width="256" height="256" viewBox="0 0 256 256" xml:space="preserve">
<g style="stroke: none; stroke-width: 0; stroke-dasharray: none; stroke-linecap: butt; stroke-linejoin: miter; stroke-miterlimit: 10; fill: none; fill-rule: nonzero; opacity: 1;" transform="translate(1.4065934065934016 1.4065934065934016) scale(2.81 2.81)">
	<path d="M 48.916 90 h -7.832 c -2.735 0 -4.952 -2.217 -4.952 -4.952 v -6.557 c 6.83 -1.755 12.883 -2.025 17.736 0 v 6.557 C 53.868 87.783 51.651 90 48.916 90 z" style="stroke: none; stroke-width: 1; stroke-dasharray: none; stroke-linecap: butt; stroke-linejoin: miter; stroke-miterlimit: 10; fill: rgb(84,82,81); fill-rule: nonzero; opacity: 1;" transform=" matrix(1 0 0 1 0 0) " stroke-linecap="round"/>
	<path d="M 74.906 29.906 c 0 -17.155 -14.445 -30.937 -31.836 -29.845 C 28.28 0.99 16.214 12.954 15.171 27.736 c -0.733 10.385 3.842 19.739 11.284 25.629 c 4.206 3.329 6.752 8.322 6.752 13.686 v 8.705 c 0 1.511 1.225 2.735 2.735 2.735 h 18.115 c 1.511 0 2.735 -1.225 2.735 -2.735 l 0 -8.708 c 0 -5.27 2.381 -10.285 6.543 -13.519 C 70.375 48.059 74.906 39.512 74.906 29.906 z" style="stroke: none; stroke-width: 1; stroke-dasharray: none; stroke-linecap: butt; stroke-linejoin: miter; stroke-miterlimit: 10; fill: rgb(255,189,41); fill-rule: nonzero; opacity: 1;" transform=" matrix(1 0 0 1 0 0) " stroke-linecap="round"/>
</g>
</svg>